<?xml version="1.0" encoding="UTF-8" standalone="no"?>
<!-- Created with Inkscape (http://www.inkscape.org/) -->

<svg
   xmlns:dc="http://purl.org/dc/elements/1.1/"
   xmlns:cc="http://creativecommons.org/ns#"
   xmlns:rdf="http://www.w3.org/1999/02/22-rdf-syntax-ns#"
   xmlns:svg="http://www.w3.org/2000/svg"
   xmlns="http://www.w3.org/2000/svg"
   xmlns:sodipodi="http://sodipodi.sourceforge.net/DTD/sodipodi-0.dtd"
   xmlns:inkscape="http://www.inkscape.org/namespaces/inkscape"
   width="93mm"
   height="79mm"
   viewBox="0 0 93 79"
   version="1.1"
   id="svg8"
   inkscape:version="0.92.1 r15371"
   sodipodi:docname="123.svg"
   style="shape-rendering:crispEdges">
  <defs
     id="defs2" />
  <sodipodi:namedview
     id="base"
     pagecolor="#ffffff"
     bordercolor="#666666"
     borderopacity="1.0"
     inkscape:pageopacity="0.0"
     inkscape:pageshadow="2"
     inkscape:zoom="1.979899"
     inkscape:cx="78.146677"
     inkscape:cy="101.2641"
     inkscape:document-units="mm"
     inkscape:current-layer="layer1"
     showgrid="false"
     inkscape:window-width="1920"
     inkscape:window-height="1018"
     inkscape:window-x="-8"
     inkscape:window-y="-8"
     inkscape:window-maximized="1"
     showborder="false"
     fit-margin-top="0"
     fit-margin-left="0"
     fit-margin-right="0"
     fit-margin-bottom="0" />
  <metadata
     id="metadata5">
    <rdf:RDF>
      <cc:Work
         rdf:about="">
        <dc:format>image/svg+xml</dc:format>
        <dc:type
           rdf:resource="http://purl.org/dc/dcmitype/StillImage" />
        <dc:title></dc:title>
      </cc:Work>
    </rdf:RDF>
  </metadata>
  <g
     inkscape:label="Layer 1"
     inkscape:groupmode="layer"
     id="layer1"
     transform="translate(-0.99999928,-218)">
    <g
       id="g5641"
       transform="matrix(-1.0075968,0,0,-1.002492,94,297.00645)"
       style="fill:#ffffff;stroke-width:0.99498409"
       inkscape:export-xdpi="120"
       inkscape:export-ydpi="120">
      <g
         transform="translate(-0.03340869)"
         id="g5628"
         style="fill:#ffffff;stroke-width:0.99498409">
        <path
           style="opacity:1;fill:#ffffff;fill-opacity:1;stroke:none;stroke-width:0.76116282;stroke-miterlimit:4;stroke-dasharray:none;stroke-opacity:1;paint-order:normal"
           d="m 53.806625,59.556449 a 7.9999998,7.9999998 0 0 0 -8.000028,8.000021 7.9999998,7.9999998 0 0 0 8.000028,8.000021 7.9999998,7.9999998 0 0 0 8.000028,-8.000021 7.9999998,7.9999998 0 0 0 -8.000028,-8.000021 z m 0,4.000262 a 3.9999999,3.9999999 0 0 1 3.999756,3.999759 3.9999999,3.9999999 0 0 1 -3.999756,4.000262 3.9999999,3.9999999 0 0 1 -4.000272,-4.000262 3.9999999,3.9999999 0 0 1 4.000272,-3.999759 z"
           id="path5598"
           inkscape:connector-curvature="0" />
        <rect
           y="0.033408687"
           x="-35.635456"
           height="21.128263"
           width="3.9004645"
           id="rect5621"
           style="opacity:1;fill:#ffffff;fill-opacity:1;stroke:none;stroke-width:0.76116276;stroke-miterlimit:4;stroke-dasharray:none;stroke-opacity:1;paint-order:normal"
           transform="rotate(-90)" />
        <rect
           transform="rotate(-45.209896)"
           style="opacity:1;fill:#ffffff;fill-opacity:1;stroke:none;stroke-width:0.76116276;stroke-miterlimit:4;stroke-dasharray:none;stroke-opacity:1;paint-order:normal"
           id="rect5623"
           width="3.9004645"
           height="42.777096"
           x="-11.513903"
           y="37.37595" />
      </g>
      <g
         transform="translate(-0.75595238,1.889881)"
         id="g5611"
         style="fill:#ffffff;stroke-width:0.99498409">
        <rect
           style="opacity:1;fill:#ffffff;fill-opacity:1;stroke:none;stroke-width:0.76116282;stroke-miterlimit:4;stroke-dasharray:none;stroke-opacity:1;paint-order:normal"
           id="rect5605"
           width="19.067835"
           height="4.1760864"
           x="-1.8834425"
           y="-35.334175"
           transform="rotate(90)" />
        <rect
           transform="rotate(45)"
           y="-14.056983"
           x="34.183296"
           height="4.1760864"
           width="67.577255"
           id="rect5607"
           style="opacity:1;fill:#ffffff;fill-opacity:1;stroke:none;stroke-width:0.76116282;stroke-miterlimit:4;stroke-dasharray:none;stroke-opacity:1;paint-order:normal" />
      </g>
      <path
         style="opacity:1;fill:#ffffff;fill-opacity:1;stroke:none;stroke-width:0.76116282;stroke-miterlimit:4;stroke-dasharray:none;stroke-opacity:1;paint-order:normal"
         d="m 84.298797,62.810017 a 7.9999998,7.9999998 0 0 0 -8.000028,8.000021 7.9999998,7.9999998 0 0 0 8.000028,8.000021 7.9999998,7.9999998 0 0 0 8.000028,-8.000021 7.9999998,7.9999998 0 0 0 -8.000028,-8.000021 z m 0,4.000262 a 3.9999999,3.9999999 0 0 1 3.999756,3.999759 3.9999999,3.9999999 0 0 1 -3.999756,4.000262 3.9999999,3.9999999 0 0 1 -4.000272,-4.000262 3.9999999,3.9999999 0 0 1 4.000272,-3.999759 z"
         id="path5613"
         inkscape:connector-curvature="0" />
      <rect
         y="0.019336607"
         x="81.306717"
         height="6.9069095"
         width="3.9004645"
         id="rect5615"
         style="opacity:1;fill:#ffffff;fill-opacity:1;stroke:none;stroke-width:0.76116276;stroke-miterlimit:4;stroke-dasharray:none;stroke-opacity:1;paint-order:normal" />
      <rect
         transform="rotate(45)"
         style="opacity:1;fill:#ffffff;fill-opacity:1;stroke:none;stroke-width:0.76116282;stroke-miterlimit:4;stroke-dasharray:none;stroke-opacity:1;paint-order:normal"
         id="rect5617"
         width="3.9004645"
         height="22.687416"
         x="61.247707"
         y="-55.352982" />
      <path
         inkscape:connector-curvature="0"
         id="path5619"
         d="m 64.280596,17.202552 a 7.9999998,7.9999998 0 0 0 -8.000028,8.000021 7.9999998,7.9999998 0 0 0 8.000028,8.000021 7.9999998,7.9999998 0 0 0 8.000028,-8.000021 7.9999998,7.9999998 0 0 0 -8.000028,-8.000021 z m 0,4.000262 a 3.9999999,3.9999999 0 0 1 3.999756,3.999759 3.9999999,3.9999999 0 0 1 -3.999756,4.000262 3.9999999,3.9999999 0 0 1 -4.000272,-4.000262 3.9999999,3.9999999 0 0 1 4.000272,-3.999759 z"
         style="opacity:1;fill:#ffffff;fill-opacity:1;stroke:none;stroke-width:0.76116282;stroke-miterlimit:4;stroke-dasharray:none;stroke-opacity:1;paint-order:normal" />
    </g>
  </g>
</svg>
