<?xml version="1.0" encoding="UTF-8" standalone="no"?>
<!-- Generator: Adobe Illustrator 19.0.0, SVG Export Plug-In . SVG Version: 6.00 Build 0)  -->

<svg
   xmlns:dc="http://purl.org/dc/elements/1.1/"
   xmlns:cc="http://creativecommons.org/ns#"
   xmlns:rdf="http://www.w3.org/1999/02/22-rdf-syntax-ns#"
   xmlns:svg="http://www.w3.org/2000/svg"
   xmlns="http://www.w3.org/2000/svg"
   xmlns:sodipodi="http://sodipodi.sourceforge.net/DTD/sodipodi-0.dtd"
   xmlns:inkscape="http://www.inkscape.org/namespaces/inkscape"
   version="1.1"
   id="Layer_1"
   x="0px"
   y="0px"
   viewBox="0 0 512 512"
   style="enable-background:new 0 0 512 512;"
   xml:space="preserve"
   sodipodi:docname="led.svg"
   inkscape:version="0.92.1 r15371"><metadata
     id="metadata55"><rdf:RDF><cc:Work
         rdf:about=""><dc:format>image/svg+xml</dc:format><dc:type
           rdf:resource="http://purl.org/dc/dcmitype/StillImage" /></cc:Work></rdf:RDF></metadata><defs
     id="defs53" /><sodipodi:namedview
     pagecolor="#ffffff"
     bordercolor="#666666"
     borderopacity="1"
     objecttolerance="10"
     gridtolerance="10"
     guidetolerance="10"
     inkscape:pageopacity="0"
     inkscape:pageshadow="2"
     inkscape:window-width="1920"
     inkscape:window-height="1018"
     id="namedview51"
     showgrid="false"
     inkscape:zoom="1.3037281"
     inkscape:cx="330.79931"
     inkscape:cy="303.98775"
     inkscape:window-x="-8"
     inkscape:window-y="-8"
     inkscape:window-maximized="1"
     inkscape:current-layer="Layer_1" /><g
     id="g4529"
     transform="rotate(180,256.0005,255.9995)"
     style="fill:#ffffff"><g
       style="fill:#ffffff"
       id="g6"><g
         style="fill:#ffffff"
         id="g4"><path
           style="fill:#ffffff"
           id="path2"
           d="m 395.636,302.545 h -58.182 v -58.182 c 0,-6.982 -4.655,-11.636 -11.636,-11.636 H 302.545 L 323.49,204.8 c 3.491,-4.655 2.327,-12.8 -2.327,-16.291 -4.654,-3.491 -12.8,-2.327 -16.291,2.327 l -34.909,46.545 c -2.327,3.491 -3.491,8.145 -1.164,11.636 2.327,3.491 5.819,6.983 10.474,6.983 h 34.909 v 46.545 H 197.818 v -93.091 h 46.545 l -20.945,27.927 c -3.491,4.655 -2.327,12.8 2.327,16.291 4.654,3.491 12.8,2.327 16.291,-2.327 L 276.945,204.8 c 2.327,-3.491 3.491,-8.145 1.164,-11.636 -2.327,-3.491 -5.818,-6.982 -10.473,-6.982 h -81.455 c -6.982,0 -11.636,4.655 -11.636,11.636 v 104.727 c -6.982,0 -11.636,4.655 -11.636,11.636 0,6.981 4.655,11.636 11.636,11.636 h 221.091 c 6.982,0 11.636,4.655 11.636,11.636 0,6.982 -4.655,11.636 -11.636,11.636 H 116.364 c -6.982,0 -11.636,-4.655 -11.636,-11.636 0,-6.982 4.655,-11.636 11.636,-11.636 H 128 c 11.636,0 11.636,-10.473 11.636,-18.618 V 139.636 c 0,-64 52.364,-116.364 116.364,-116.364 64,0 116.364,52.364 116.364,116.364 v 128 c 0,6.982 4.655,11.636 11.636,11.636 6.981,0 11.636,-4.655 11.636,-11.636 v -128 C 395.636,62.836 332.8,0 256,0 179.2,0 116.364,62.836 116.364,139.636 c 0,0 0,123.345 0,162.909 -19.782,0 -34.909,15.127 -34.909,34.909 0,19.782 15.127,34.909 34.909,34.909 h 279.273 c 19.782,0 34.909,-15.127 34.909,-34.909 -10e-4,-19.781 -15.128,-34.909 -34.91,-34.909 z"
           inkscape:connector-curvature="0" /></g></g><g
       style="fill:#ffffff"
       id="g12"><g
         style="fill:#ffffff"
         id="g10"><path
           style="fill:#ffffff"
           id="path8"
           d="m 186.182,395.636 c -6.982,0 -11.636,4.655 -11.636,11.636 v 93.091 c 0,6.982 4.655,11.636 11.636,11.636 6.981,0 11.636,-4.655 11.636,-11.636 v -93.091 c 0,-6.981 -4.654,-11.636 -11.636,-11.636 z"
           inkscape:connector-curvature="0" /></g></g><g
       style="fill:#ffffff"
       id="g18"><g
         style="fill:#ffffff"
         id="g16"><path
           style="fill:#ffffff"
           id="path14"
           d="m 325.818,395.636 c -6.982,0 -11.636,4.655 -11.636,11.636 v 93.091 c 0,6.982 4.655,11.636 11.636,11.636 6.981,0 11.636,-4.655 11.636,-11.636 v -93.091 c 10e-4,-6.981 -4.654,-11.636 -11.636,-11.636 z"
           inkscape:connector-curvature="0" /></g></g><g
       style="fill:#ffffff"
       id="g20" /><g
       style="fill:#ffffff"
       id="g22" /><g
       style="fill:#ffffff"
       id="g24" /><g
       style="fill:#ffffff"
       id="g26" /><g
       style="fill:#ffffff"
       id="g28" /><g
       style="fill:#ffffff"
       id="g30" /><g
       style="fill:#ffffff"
       id="g32" /><g
       style="fill:#ffffff"
       id="g34" /><g
       style="fill:#ffffff"
       id="g36" /><g
       style="fill:#ffffff"
       id="g38" /><g
       style="fill:#ffffff"
       id="g40" /><g
       style="fill:#ffffff"
       id="g42" /><g
       style="fill:#ffffff"
       id="g44" /><g
       style="fill:#ffffff"
       id="g46" /><g
       style="fill:#ffffff"
       id="g48" /></g></svg>