<?xml version="1.0" encoding="UTF-8" standalone="no"?>
<!-- Svg Vector Icons : http://www.onlinewebfonts.com/icon -->

<svg
   xmlns:dc="http://purl.org/dc/elements/1.1/"
   xmlns:cc="http://creativecommons.org/ns#"
   xmlns:rdf="http://www.w3.org/1999/02/22-rdf-syntax-ns#"
   xmlns:svg="http://www.w3.org/2000/svg"
   xmlns="http://www.w3.org/2000/svg"
   xmlns:sodipodi="http://sodipodi.sourceforge.net/DTD/sodipodi-0.dtd"
   xmlns:inkscape="http://www.inkscape.org/namespaces/inkscape"
   version="1.1"
   x="0px"
   y="0px"
   viewBox="0 0 1000 1000"
   enable-background="new 0 0 1000 1000"
   xml:space="preserve"
   id="svg12"
   sodipodi:docname="oscyloskop.svg"
   inkscape:version="0.92.1 r15371"><defs
     id="defs16" /><sodipodi:namedview
     pagecolor="#ffffff"
     bordercolor="#666666"
     borderopacity="1"
     objecttolerance="10"
     gridtolerance="10"
     guidetolerance="10"
     inkscape:pageopacity="0"
     inkscape:pageshadow="2"
     inkscape:window-width="1920"
     inkscape:window-height="1018"
     id="namedview14"
     showgrid="false"
     inkscape:zoom="0.6675088"
     inkscape:cx="215.29211"
     inkscape:cy="410.71895"
     inkscape:window-x="-8"
     inkscape:window-y="-8"
     inkscape:window-maximized="1"
     inkscape:current-layer="svg12" /><metadata
     id="metadata2"> Svg Vector Icons : http://www.onlinewebfonts.com/icon <rdf:RDF><cc:Work
     rdf:about=""><dc:format>image/svg+xml</dc:format><dc:type
       rdf:resource="http://purl.org/dc/dcmitype/StillImage" /><dc:title /></cc:Work></rdf:RDF></metadata><g
     id="g4489"><g
       transform="translate(-29.829851,-45.200262)"
       style="fill:#000000"
       id="g10"><g
         style="fill:#000000"
         id="g8"
         transform="matrix(0.1,0,0,-0.1,0,511)"><path
           inkscape:connector-curvature="0"
           style="fill:#000000"
           id="path4"
           d="M 336,3460 C 250,3434 168,3366 132,3292 102,3230 100,2954 100,262 v -2962 h 510 510 v -248 c 0,-200 6,-256 32,-280 26,-28 122,-32 750,-32 458,0 734,8 760,20 34,20 38,44 38,280 v 260 h 2300 2300 v -260 c 0,-236 4,-260 38,-280 26,-12 302,-20 760,-20 628,0 724,4 750,32 26,24 32,80 32,280 v 248 h 510 510 l -4,2986 -6,2984 -46,64 c -24,34 -84,82 -130,104 l -86,42 -4620,-2 c -2540,0 -4642,-8 -4672,-18 z M 5940,550 V -1740 H 3250 560 V 550 2840 h 2690 2690 z m 2184,2268 c 476,-100 814,-584 742,-1060 -60,-378 -342,-690 -716,-788 -488,-126 -1010,186 -1140,680 -84,328 8,668 250,910 234,232 542,324 864,258 z M 7676,76 c -6,-408 -10,-466 -38,-472 -18,-2 -242,92 -500,214 -350,162 -468,226 -468,252 0,28 118,92 460,252 254,120 480,218 506,218 h 44 z m 1040,252 c 250,-116 462,-220 474,-230 12,-12 8,-30 -12,-48 -40,-40 -912,-450 -958,-450 -20,0 -42,14 -48,32 -6,18 -12,214 -12,438 0,224 6,420 12,438 6,18 30,32 50,32 22,0 244,-96 494,-212 z M 6992,-1238 c 216,-98 288,-384 148,-580 -158,-218 -482,-218 -640,0 -186,258 0,618 320,618 50,0 128,-18 172,-38 z m 1104,0 c 140,-72 224,-204 224,-352 0,-124 -38,-206 -136,-294 -184,-166 -496,-110 -602,108 -46,96 -54,238 -20,330 28,74 132,184 208,218 88,38 240,34 326,-10 z m 1126,-8 c 256,-136 274,-510 34,-668 -72,-48 -104,-56 -228,-56 -130,0 -152,6 -222,62 -94,74 -166,210 -166,312 0,296 320,488 582,350 z" /><path
           inkscape:connector-curvature="0"
           style="fill:#000000"
           id="path6"
           d="m 3138,1374 -270,-584 -124,-6 -124,-6 -112,-190 c -60,-104 -118,-184 -126,-180 -8,6 -148,230 -312,500 -166,270 -306,490 -312,492 -8,0 -100,-140 -208,-310 L 1358,780 H 1158 960 V 540 300 h 278 278 l 120,202 118,202 316,-514 c 174,-280 320,-508 324,-502 4,4 92,142 194,306 l 186,296 164,10 164,10 154,346 c 84,188 156,344 162,344 8,0 218,-434 472,-962 252,-528 464,-964 472,-970 8,-4 134,270 282,608 l 268,614 320,10 318,10 6,236 6,234 -404,-4 -402,-6 -192,-424 C 4458,112 4366,-72 4360,-64 c -8,8 -218,460 -468,1004 -250,544 -462,996 -468,1004 -8,8 -136,-250 -286,-570 z" /></g></g></g></svg>